<svg width="26" height="25" viewBox="0 0 26 25" fill="none" xmlns="http://www.w3.org/2000/svg">
<path fill-rule="evenodd" clip-rule="evenodd" d="M12.7626 8.00197C12.9985 8.00197 13.2333 8.07897 13.4246 8.23397L19.6309 13.234C20.0695 13.587 20.1295 14.218 19.7633 14.642C19.3982 15.066 18.7465 15.123 18.3069 14.77L12.7513 10.294L7.20494 14.609C6.76016 14.955 6.10851 14.887 5.75061 14.457C5.39272 14.027 5.46306 13.398 5.90784 13.051L12.1141 8.22297C12.3034 8.07597 12.533 8.00197 12.7626 8.00197Z" fill="#231F20"/>
<mask id="mask0" mask-type="alpha" maskUnits="userSpaceOnUse" x="5" y="8" width="16" height="8">
<path fill-rule="evenodd" clip-rule="evenodd" d="M12.7626 8.00197C12.9985 8.00197 13.2333 8.07897 13.4246 8.23397L19.6309 13.234C20.0695 13.587 20.1295 14.218 19.7633 14.642C19.3982 15.066 18.7465 15.123 18.3069 14.77L12.7513 10.294L7.20494 14.609C6.76016 14.955 6.10851 14.887 5.75061 14.457C5.39272 14.027 5.46306 13.398 5.90784 13.051L12.1141 8.22297C12.3034 8.07597 12.533 8.00197 12.7626 8.00197Z" fill="white"/>
</mask>
<g mask="url(#mask0)">
<rect x="25.175" y="24.002" width="24.825" height="24" transform="rotate(-180 25.175 24.002)" fill="#181B32"/>
</g>
</svg>
