<svg width="98" height="26" viewBox="0 0 98 26" fill="none" xmlns="http://www.w3.org/2000/svg">
<path d="M11.7083 0.000732632H4.11903C3.86779 0.000574161 3.62474 0.0901514 3.4337 0.253324C3.24265 0.416497 3.11616 0.642536 3.07702 0.890714L0.00758337 20.3516C-0.00652776 20.4419 -0.000898752 20.5342 0.0240801 20.6221C0.0490589 20.71 0.0927946 20.7915 0.152278 20.8609C0.211761 20.9303 0.285577 20.9859 0.368644 21.0241C0.451711 21.0622 0.542053 21.0819 0.633454 21.0817H4.25663C4.50804 21.0819 4.75121 20.9921 4.94228 20.8287C5.13335 20.6653 5.25974 20.439 5.29864 20.1906L6.12648 14.9418C6.16535 14.6936 6.29158 14.4674 6.48242 14.304C6.67326 14.1407 6.91616 14.0508 7.16738 14.0507H9.56989C14.5691 14.0507 17.4543 11.6315 18.2078 6.83761C18.5474 4.74027 18.2222 3.09236 17.2401 1.93827C16.1615 0.670992 14.2484 0.000732632 11.7083 0.000732632ZM12.5838 7.10837C12.1688 9.83158 10.0881 9.83158 8.07623 9.83158H6.93101L7.73444 4.74582C7.75796 4.59703 7.83381 4.46152 7.94834 4.36367C8.06287 4.26582 8.20856 4.21205 8.3592 4.21205H8.88409C10.2546 4.21205 11.5474 4.21205 12.2154 4.99328C12.6138 5.45936 12.7359 6.15181 12.5838 7.10837ZM34.3939 7.02071H30.7596C30.609 7.02071 30.4633 7.07447 30.3488 7.17232C30.2342 7.27017 30.1584 7.40568 30.1349 7.55447L29.974 8.57096L29.7199 8.20254C28.9331 7.06066 27.1786 6.67892 25.4275 6.67892C21.4115 6.67892 17.9814 9.72061 17.3134 13.9874C16.966 16.1158 17.4599 18.151 18.6672 19.5703C19.7747 20.8753 21.3594 21.4191 23.2447 21.4191C26.4806 21.4191 28.275 19.3384 28.275 19.3384L28.113 20.3482C28.0986 20.4385 28.1039 20.5309 28.1286 20.6189C28.1533 20.7069 28.1967 20.7886 28.256 20.8582C28.3153 20.9278 28.389 20.9837 28.4719 21.0221C28.5549 21.0605 28.6452 21.0805 28.7367 21.0806H32.0103C32.2617 21.0807 32.5049 20.991 32.6959 20.8276C32.887 20.6642 33.0134 20.4379 33.0523 20.1895L35.0165 7.75089C35.0309 7.6608 35.0256 7.56866 35.001 7.48081C34.9764 7.39296 34.9329 7.31151 34.8738 7.24208C34.8146 7.17265 34.741 7.1169 34.6582 7.07868C34.5753 7.04046 34.4851 7.02068 34.3939 7.02071ZM29.3281 14.0939C28.9775 16.1702 27.3296 17.564 25.2278 17.564C24.1725 17.564 23.3291 17.2255 22.7875 16.5841C22.2504 15.9471 22.0463 15.0405 22.2172 14.0307C22.5445 11.9722 24.2202 10.5329 26.2898 10.5329C27.3218 10.5329 28.1607 10.8758 28.7134 11.5228C29.2671 12.1764 29.4868 13.0886 29.3281 14.0939ZM53.7493 7.02071H50.0973C49.9251 7.02098 49.7555 7.06327 49.6033 7.14391C49.4511 7.22455 49.3209 7.3411 49.224 7.48345L44.187 14.9029L42.052 7.77308C41.9864 7.55563 41.8526 7.36505 41.6704 7.22954C41.4881 7.09404 41.267 7.02082 41.0399 7.02071H37.4511C37.3504 7.02044 37.2511 7.04424 37.1614 7.09012C37.0717 7.136 36.9943 7.20264 36.9355 7.28449C36.8768 7.36634 36.8385 7.46103 36.8237 7.56069C36.809 7.66034 36.8183 7.76208 36.8508 7.85742L40.8735 19.6624L37.0916 25.0012C37.0244 25.0959 36.9845 25.2072 36.9764 25.323C36.9682 25.4388 36.9921 25.5546 37.0454 25.6578C37.0987 25.7609 37.1793 25.8474 37.2785 25.9077C37.3777 25.9681 37.4915 26 37.6076 25.9999H41.2552C41.4255 26.0002 41.5933 25.9591 41.7443 25.8802C41.8952 25.8014 42.0248 25.6871 42.1219 25.5472L54.2687 8.01389C54.3345 7.91903 54.3731 7.80796 54.3803 7.69272C54.3875 7.57748 54.3631 7.46246 54.3096 7.36014C54.2561 7.25781 54.1756 7.17209 54.0768 7.11226C53.9781 7.05242 53.8648 7.02076 53.7493 7.02071Z" fill="#181B32"/>
<path d="M65.8413 0.00110962H58.2509C57.9999 0.00121553 57.7571 0.0909122 57.5663 0.254061C57.3755 0.417211 57.2491 0.643102 57.21 0.89109L54.1406 20.3519C54.1263 20.4421 54.1317 20.5343 54.1565 20.6221C54.1813 20.7099 54.2248 20.7914 54.2841 20.8608C54.3434 20.9302 54.417 20.9859 54.4999 21.0241C54.5828 21.0623 54.673 21.0821 54.7642 21.0821H58.6593C58.835 21.0819 59.0049 21.0189 59.1383 20.9046C59.2718 20.7903 59.36 20.6321 59.3873 20.4585L60.2584 14.9421C60.2972 14.6939 60.4235 14.4678 60.6143 14.3044C60.8052 14.141 61.0481 14.0512 61.2993 14.051H63.7007C68.701 14.051 71.5851 11.6319 72.3397 6.83798C72.6804 4.74065 72.353 3.09274 71.3709 1.93865C70.2934 0.671369 68.3814 0.00110962 65.8413 0.00110962ZM66.7168 7.10875C66.3029 9.83196 64.2222 9.83196 62.2092 9.83196H61.0651L61.8697 4.74619C61.8927 4.5974 61.9683 4.46178 62.0827 4.36387C62.1971 4.26596 62.3427 4.21224 62.4933 4.21243H63.0182C64.3876 4.21243 65.6815 4.21243 66.3495 4.99366C66.7479 5.45973 66.8689 6.15219 66.7168 7.10875ZM88.5258 7.02108H84.8937C84.7431 7.02067 84.5973 7.07431 84.4829 7.17226C84.3684 7.2702 84.2929 7.40596 84.2701 7.55485L84.1092 8.57134L83.854 8.20292C83.0672 7.06103 81.3139 6.6793 79.5627 6.6793C75.5467 6.6793 72.1177 9.72099 71.4497 13.9878C71.1035 16.1162 71.5951 18.1514 72.8024 19.5707C73.9121 20.8757 75.4946 21.4195 77.38 21.4195C80.6158 21.4195 82.4102 19.3388 82.4102 19.3388L82.2482 20.3486C82.2338 20.4391 82.2391 20.5316 82.2639 20.6198C82.2887 20.708 82.3324 20.7897 82.3919 20.8594C82.4515 20.9291 82.5254 20.9849 82.6087 21.0232C82.6919 21.0615 82.7825 21.0812 82.8741 21.081H86.1466C86.3978 21.0809 86.6407 20.991 86.8316 20.8276C87.0224 20.6643 87.1486 20.4381 87.1875 20.1899L89.1528 7.75127C89.1667 7.6609 89.1609 7.56858 89.1358 7.48067C89.1107 7.39275 89.0668 7.31131 89.0073 7.24193C88.9477 7.17256 88.8738 7.1169 88.7907 7.07878C88.7076 7.04066 88.6172 7.02098 88.5258 7.02108ZM83.46 14.0943C83.1116 16.1706 81.4614 17.5644 79.3597 17.5644C78.3066 17.5644 77.461 17.2259 76.9194 16.5845C76.3823 15.9475 76.1804 15.0409 76.349 14.0311C76.6786 11.9726 78.3521 10.5333 80.4216 10.5333C81.4537 10.5333 82.2926 10.8762 82.8452 11.5231C83.4012 12.1768 83.6209 13.0889 83.46 14.0943ZM92.8104 0.534876L89.6954 20.3519C89.6811 20.4421 89.6866 20.5343 89.7114 20.6221C89.7361 20.7099 89.7797 20.7914 89.8389 20.8608C89.8982 20.9302 89.9718 20.9859 90.0547 21.0241C90.1376 21.0623 90.2278 21.0821 90.3191 21.0821H93.4507C93.9711 21.0821 94.4128 20.7048 94.4927 20.191L97.5643 0.731293C97.5786 0.64109 97.5731 0.548869 97.5484 0.460969C97.5236 0.373068 97.4801 0.291574 97.4208 0.222088C97.3616 0.152601 97.288 0.0967705 97.2051 0.0584332C97.1222 0.0200959 97.032 0.000161617 96.9407 0H93.434C93.2835 0.000533076 93.138 0.0546515 93.0237 0.152661C92.9095 0.250671 92.8338 0.386167 92.8104 0.534876Z" fill="#8D8D9D"/>
</svg>
