<svg width="13" height="13" viewBox="0 0 13 13" fill="none" xmlns="http://www.w3.org/2000/svg">
<path fill-rule="evenodd" clip-rule="evenodd" d="M6.81813 8.03086C6.89763 8.03086 6.97713 8.04986 7.04963 8.08736L8.93413 9.07236L8.57563 6.99386C8.54713 6.83086 8.60163 6.66486 8.72063 6.54936L10.2386 5.08136L8.13713 4.77536C7.97463 4.75186 7.83413 4.65036 7.76113 4.50336L6.81813 2.60636L5.87513 4.50336C5.80213 4.65036 5.66163 4.75186 5.49913 4.77536L3.39763 5.08136L4.91563 6.54936C5.03463 6.66486 5.08913 6.83086 5.06063 6.99386L4.70213 9.07236L6.58663 8.08736C6.65913 8.04986 6.73863 8.03086 6.81813 8.03086ZM9.59913 10.4834C9.51963 10.4834 9.44013 10.4649 9.36763 10.4269L6.81813 9.09486L4.26863 10.4269C4.09963 10.5149 3.89563 10.4994 3.74313 10.3874C3.58913 10.2754 3.51263 10.0859 3.54463 9.89836L4.03063 7.08436L1.97063 5.09186C1.83313 4.95936 1.78413 4.76036 1.84263 4.57886C1.90063 4.39736 2.05763 4.26536 2.24613 4.23786L5.09663 3.82386L6.37013 1.26086C6.53913 0.920859 7.09713 0.920859 7.26613 1.26086L8.53963 3.82386L11.3901 4.23786C11.5786 4.26536 11.7356 4.39736 11.7936 4.57886C11.8521 4.76036 11.8031 4.95936 11.6656 5.09186L9.60563 7.08436L10.0916 9.89836C10.1236 10.0859 10.0471 10.2754 9.89313 10.3874C9.80663 10.4514 9.70313 10.4834 9.59913 10.4834Z" fill="#231F20"/>
<mask id="mask0" mask-type="alpha" maskUnits="userSpaceOnUse" x="1" y="1" width="11" height="10">
<path fill-rule="evenodd" clip-rule="evenodd" d="M9.59913 10.4834C9.51963 10.4834 9.44013 10.4649 9.36763 10.4269L6.81813 9.09486L4.26863 10.4269C4.09963 10.5149 3.89563 10.4994 3.74313 10.3874C3.58913 10.2754 3.51263 10.0859 3.54463 9.89836L4.03063 7.08436L1.97063 5.09186C1.83313 4.95936 1.78413 4.76036 1.84263 4.57886C1.90063 4.39736 2.05763 4.26536 2.24613 4.23786L5.09663 3.82386L6.37013 1.26086C6.53913 0.920859 7.09713 0.920859 7.26613 1.26086L8.53963 3.82386L11.3901 4.23786C11.5786 4.26536 11.7356 4.39736 11.7936 4.57886C11.8521 4.76036 11.8031 4.95936 11.6656 5.09186L9.60563 7.08436L10.0916 9.89836C10.1236 10.0859 10.0471 10.2754 9.89313 10.3874C9.80663 10.4514 9.70313 10.4834 9.59913 10.4834Z" fill="white"/>
</mask>
<g mask="url(#mask0)">
<rect x="0.818359" y="0.00585938" width="12" height="12" fill="#8D8D9D"/>
</g>
</svg>
